<?xml version="1.0" encoding="UTF-8"?>
<svg xmlns="http://www.w3.org/2000/svg" width="512" height="512" viewBox="0 0 512 512" role="img" aria-label="Gleniffer Executive Travel icon">
  <defs>
    <linearGradient id="gold" x1="0" y1="0" x2="1" y2="1">
      <stop offset="0" stop-color="#f4e1ad"/>
      <stop offset="0.55" stop-color="#d7b46a"/>
      <stop offset="1" stop-color="#f4e1ad"/>
    </linearGradient>
    <filter id="grain" x="-20%" y="-20%" width="140%" height="140%">
      <feTurbulence type="fractalNoise" baseFrequency="0.9" numOctaves="2" stitchTiles="stitch" result="noise"/>
      <feColorMatrix type="matrix" values="
        1 0 0 0 0
        0 1 0 0 0
        0 0 1 0 0
        0 0 0 0.08 0" in="noise" result="grainAlpha"/>
      <feBlend mode="soft-light" in="SourceGraphic" in2="grainAlpha"/>
    </filter>
  </defs>
  <rect width="512" height="512" rx="96" fill="#0b0f16" stroke="url(#gold)" stroke-width="10" filter="url(#grain)"/>
  <path d="M92 212 C140 168, 208 160, 260 192 C312 224, 378 220, 420 182"
        fill="none" stroke="url(#gold)" stroke-width="18" stroke-linecap="round" stroke-linejoin="round"/>
  <path d="M80 282 C150 226, 240 228, 300 266 C360 304, 412 298, 452 262"
        fill="none" stroke="url(#gold)" stroke-width="10" stroke-linecap="round" stroke-linejoin="round" opacity="0.95"/>
  <path d="M256 282 C215 315, 198 362, 215 410 C228 448, 248 482, 256 512
           C264 482, 284 448, 297 410 C314 362, 297 315, 256 282 Z"
        fill="rgba(215,180,106,0.14)" stroke="rgba(215,180,106,0.42)" stroke-width="3"/>
</svg>
