<?xml version="1.0" encoding="UTF-8"?>
<svg xmlns="http://www.w3.org/2000/svg" width="1600" height="320" viewBox="0 0 1600 320" role="img" aria-label="Gleniffer Executive Travel wordmark">
  <defs>
    <linearGradient id="gold" x1="0" y1="0" x2="1" y2="1">
      <stop offset="0" stop-color="#f4e1ad"/>
      <stop offset="0.55" stop-color="#d7b46a"/>
      <stop offset="1" stop-color="#f4e1ad"/>
    </linearGradient>
    <filter id="grain" x="-20%" y="-20%" width="140%" height="140%">
      <feTurbulence type="fractalNoise" baseFrequency="0.85" numOctaves="2" stitchTiles="stitch" result="noise"/>
      <feColorMatrix type="matrix" values="
        1 0 0 0 0
        0 1 0 0 0
        0 0 1 0 0
        0 0 0 0.06 0" in="noise" result="grainAlpha"/>
      <feBlend mode="soft-light" in="SourceGraphic" in2="grainAlpha"/>
    </filter>
  </defs>

  <!-- Icon -->
  <g transform="translate(40,34)" filter="url(#grain)">
    <path d="M130 6 C180 6, 230 26, 262 60 L262 180
             C262 250, 210 295, 130 318
             C50 295, -2 250, -2 180 L-2 60
             C30 26, 80 6, 130 6 Z"
          fill="#0b0f16" stroke="url(#gold)" stroke-width="6"/>
    <path d="M40 112 C70 86, 106 78, 144 92 C180 104, 210 98, 238 86"
          fill="none" stroke="url(#gold)" stroke-width="10" stroke-linecap="round" stroke-linejoin="round"/>
    <path d="M26 150 C78 118, 136 124, 176 146 C214 166, 238 156, 250 146"
          fill="none" stroke="url(#gold)" stroke-width="6" stroke-linecap="round" stroke-linejoin="round" opacity="0.95"/>
    <path d="M130 152 C110 168, 102 186, 110 208 C117 228, 127 246, 130 264
             C133 246, 143 228, 150 208 C158 186, 150 168, 130 152 Z"
          fill="rgba(215,180,106,0.14)" stroke="rgba(215,180,106,0.42)" stroke-width="2"/>
  </g>

  <!-- Text -->
  <g transform="translate(340,95)">
    <text x="0" y="70" font-size="92" font-weight="700" letter-spacing="6"
          font-family="Georgia, 'Times New Roman', Times, serif" fill="url(#gold)">GLENIFFER</text>
    <text x="2" y="140" font-size="44" font-weight="700" letter-spacing="10"
          font-family="ui-sans-serif, system-ui, -apple-system, Segoe UI, Roboto, Helvetica, Arial"
          fill="#f3f6ff">EXECUTIVE TRAVEL</text>
  </g>
</svg>
